<svg width="314" height="80" viewBox="0 0 314 80" fill="none" xmlns="http://www.w3.org/2000/svg">
<path d="M72 0C76.4183 1.03081e-06 80 3.58172 80 8V39.999L42.833 37.1709L40.0039 0L37.1758 37.1709L0.00390625 40L37.1758 42.8281L40.0039 80H8C3.58172 80 6.44277e-08 76.4183 0 72V8C1.03084e-06 3.58172 3.58172 6.44256e-08 8 0H72ZM80 72C80 76.4183 76.4183 80 72 80H40.0039L42.833 42.8281L80 40V72Z" fill="url(#paint0_linear_4036_7913)"/>
<path d="M107.736 5.8C110.16 5.8 112.2 6.616 113.856 8.248C115.512 9.88 116.34 11.884 116.34 14.26C116.34 16.636 115.512 18.64 113.856 20.272C112.2 21.904 110.16 22.72 107.736 22.72H103.308V31H98.34V5.8H107.736ZM107.736 18.076C108.792 18.076 109.668 17.716 110.364 16.996C111.06 16.252 111.408 15.34 111.408 14.26C111.408 13.156 111.06 12.244 110.364 11.524C109.668 10.804 108.792 10.444 107.736 10.444H103.308V18.076H107.736ZM123.616 16.096C124.048 14.944 124.756 14.08 125.74 13.504C126.748 12.928 127.864 12.64 129.088 12.64V17.824C127.672 17.656 126.4 17.944 125.272 18.688C124.168 19.432 123.616 20.668 123.616 22.396V31H118.972V13H123.616V16.096ZM146.472 28.768C144.624 30.592 142.368 31.504 139.704 31.504C137.04 31.504 134.784 30.592 132.936 28.768C131.112 26.92 130.2 24.664 130.2 22C130.2 19.336 131.112 17.092 132.936 15.268C134.784 13.42 137.04 12.496 139.704 12.496C142.368 12.496 144.624 13.42 146.472 15.268C148.32 17.092 149.244 19.336 149.244 22C149.244 24.664 148.32 26.92 146.472 28.768ZM136.212 25.564C137.148 26.5 138.312 26.968 139.704 26.968C141.096 26.968 142.26 26.5 143.196 25.564C144.132 24.628 144.6 23.44 144.6 22C144.6 20.56 144.132 19.372 143.196 18.436C142.26 17.5 141.096 17.032 139.704 17.032C138.312 17.032 137.148 17.5 136.212 18.436C135.3 19.372 134.844 20.56 134.844 22C134.844 23.44 135.3 24.628 136.212 25.564ZM110.292 69.504C106.5 69.504 103.368 68.244 100.896 65.724C98.424 63.204 97.188 60.096 97.188 56.4C97.188 52.68 98.424 49.572 100.896 47.076C103.368 44.556 106.5 43.296 110.292 43.296C112.572 43.296 114.672 43.836 116.592 44.916C118.536 45.972 120.048 47.412 121.128 49.236L116.844 51.72C116.22 50.592 115.332 49.716 114.18 49.092C113.028 48.444 111.732 48.12 110.292 48.12C107.844 48.12 105.864 48.888 104.352 50.424C102.864 51.96 102.12 53.952 102.12 56.4C102.12 58.824 102.864 60.804 104.352 62.34C105.864 63.876 107.844 64.644 110.292 64.644C111.732 64.644 113.028 64.332 114.18 63.708C115.356 63.06 116.244 62.184 116.844 61.08L121.128 63.564C120.048 65.388 118.548 66.84 116.628 67.92C114.708 68.976 112.596 69.504 110.292 69.504ZM126.549 48.84C125.781 48.84 125.109 48.564 124.533 48.012C123.981 47.436 123.705 46.764 123.705 45.996C123.705 45.228 123.981 44.556 124.533 43.98C125.109 43.404 125.781 43.116 126.549 43.116C127.341 43.116 128.013 43.404 128.565 43.98C129.141 44.556 129.429 45.228 129.429 45.996C129.429 46.764 129.141 47.436 128.565 48.012C128.013 48.564 127.341 48.84 126.549 48.84ZM124.245 69V51H128.889V69H124.245ZM143.148 50.496C145.116 50.496 146.736 51.156 148.008 52.476C149.304 53.796 149.952 55.62 149.952 57.948V69H145.308V58.524C145.308 57.324 144.984 56.412 144.336 55.788C143.688 55.14 142.824 54.816 141.744 54.816C140.544 54.816 139.584 55.188 138.864 55.932C138.144 56.676 137.784 57.792 137.784 59.28V69H133.14V51H137.784V53.016C138.912 51.336 140.7 50.496 143.148 50.496ZM157.841 61.908C158.465 64.164 160.157 65.292 162.917 65.292C164.693 65.292 166.037 64.692 166.949 63.492L170.693 65.652C168.917 68.22 166.301 69.504 162.845 69.504C159.869 69.504 157.481 68.604 155.681 66.804C153.881 65.004 152.981 62.736 152.981 60C152.981 57.288 153.869 55.032 155.645 53.232C157.421 51.408 159.701 50.496 162.485 50.496C165.125 50.496 167.297 51.408 169.001 53.232C170.729 55.056 171.593 57.312 171.593 60C171.593 60.6 171.533 61.236 171.413 61.908H157.841ZM157.769 58.308H166.949C166.685 57.084 166.133 56.172 165.293 55.572C164.477 54.972 163.541 54.672 162.485 54.672C161.237 54.672 160.205 54.996 159.389 55.644C158.573 56.268 158.033 57.156 157.769 58.308ZM190.03 66.768C188.182 68.592 185.926 69.504 183.262 69.504C180.598 69.504 178.342 68.592 176.494 66.768C174.67 64.92 173.758 62.664 173.758 60C173.758 57.336 174.67 55.092 176.494 53.268C178.342 51.42 180.598 50.496 183.262 50.496C185.926 50.496 188.182 51.42 190.03 53.268C191.878 55.092 192.802 57.336 192.802 60C192.802 62.664 191.878 64.92 190.03 66.768ZM179.77 63.564C180.706 64.5 181.87 64.968 183.262 64.968C184.654 64.968 185.818 64.5 186.754 63.564C187.69 62.628 188.158 61.44 188.158 60C188.158 58.56 187.69 57.372 186.754 56.436C185.818 55.5 184.654 55.032 183.262 55.032C181.87 55.032 180.706 55.5 179.77 56.436C178.858 57.372 178.402 58.56 178.402 60C178.402 61.44 178.858 62.628 179.77 63.564ZM209.857 51H214.393V68.136C214.393 70.92 213.469 73.044 211.621 74.508C209.797 75.972 207.589 76.704 204.997 76.704C203.053 76.704 201.337 76.332 199.849 75.588C198.385 74.844 197.257 73.752 196.465 72.312L200.425 70.044C201.337 71.724 202.909 72.564 205.141 72.564C206.605 72.564 207.757 72.18 208.597 71.412C209.437 70.644 209.857 69.552 209.857 68.136V66.192C208.489 68.016 206.569 68.928 204.097 68.928C201.553 68.928 199.417 68.04 197.689 66.264C195.985 64.464 195.133 62.28 195.133 59.712C195.133 57.168 195.997 54.996 197.725 53.196C199.453 51.396 201.577 50.496 204.097 50.496C206.569 50.496 208.489 51.408 209.857 53.232V51ZM201.181 63.276C202.141 64.188 203.353 64.644 204.817 64.644C206.281 64.644 207.481 64.188 208.417 63.276C209.377 62.34 209.857 61.152 209.857 59.712C209.857 58.296 209.377 57.132 208.417 56.22C207.481 55.284 206.281 54.816 204.817 54.816C203.353 54.816 202.141 55.284 201.181 56.22C200.245 57.132 199.777 58.296 199.777 59.712C199.777 61.152 200.245 62.34 201.181 63.276ZM223.248 54.096C223.68 52.944 224.388 52.08 225.372 51.504C226.38 50.928 227.496 50.64 228.72 50.64V55.824C227.304 55.656 226.032 55.944 224.904 56.688C223.8 57.432 223.248 58.668 223.248 60.396V69H218.604V51H223.248V54.096ZM244.449 51H249.093V69H244.449V66.876C243.057 68.628 241.101 69.504 238.581 69.504C236.181 69.504 234.117 68.592 232.389 66.768C230.685 64.92 229.833 62.664 229.833 60C229.833 57.336 230.685 55.092 232.389 53.268C234.117 51.42 236.181 50.496 238.581 50.496C241.101 50.496 243.057 51.372 244.449 53.124V51ZM235.881 63.672C236.817 64.608 238.005 65.076 239.445 65.076C240.885 65.076 242.073 64.608 243.009 63.672C243.969 62.712 244.449 61.488 244.449 60C244.449 58.512 243.969 57.3 243.009 56.364C242.073 55.404 240.885 54.924 239.445 54.924C238.005 54.924 236.817 55.404 235.881 56.364C234.945 57.3 234.477 58.512 234.477 60C234.477 61.488 234.945 62.712 235.881 63.672ZM263.78 50.496C266.204 50.496 268.268 51.42 269.972 53.268C271.7 55.092 272.564 57.336 272.564 60C272.564 62.664 271.7 64.92 269.972 66.768C268.268 68.592 266.204 69.504 263.78 69.504C261.26 69.504 259.316 68.628 257.948 66.876V76.2H253.304V51H257.948V53.124C259.316 51.372 261.26 50.496 263.78 50.496ZM259.352 63.672C260.288 64.608 261.476 65.076 262.916 65.076C264.356 65.076 265.544 64.608 266.48 63.672C267.44 62.712 267.92 61.488 267.92 60C267.92 58.512 267.44 57.3 266.48 56.364C265.544 55.404 264.356 54.924 262.916 54.924C261.476 54.924 260.288 55.404 259.352 56.364C258.416 57.3 257.948 58.512 257.948 60C257.948 61.488 258.416 62.712 259.352 63.672ZM285.847 50.496C287.815 50.496 289.435 51.156 290.707 52.476C292.003 53.796 292.651 55.62 292.651 57.948V69H288.007V58.524C288.007 57.324 287.683 56.412 287.035 55.788C286.387 55.14 285.523 54.816 284.443 54.816C283.243 54.816 282.283 55.188 281.563 55.932C280.843 56.676 280.483 57.792 280.483 59.28V69H275.839V43.8H280.483V53.016C281.611 51.336 283.399 50.496 285.847 50.496ZM307.965 51H312.933L306.381 69C305.445 71.592 304.197 73.464 302.637 74.616C301.101 75.792 299.181 76.32 296.877 76.2V71.88C298.125 71.904 299.109 71.64 299.829 71.088C300.573 70.536 301.161 69.648 301.593 68.424L294.213 51H299.289L303.969 63.096L307.965 51Z" fill="black"/>
<defs>
<linearGradient id="paint0_linear_4036_7913" x1="40" y1="0" x2="40" y2="80" gradientUnits="userSpaceOnUse">
<stop stop-color="#F9A01B"/>
<stop offset="1" stop-color="#E31E24"/>
</linearGradient>
</defs>
</svg>
